<svg xmlns="http://www.w3.org/2000/svg" viewBox="0 0 98.039 45" width="98.039" height="45">
  <defs>
    <style>
      .a{fill:#d12053}.b{fill:#e2136e}.c{fill:#9e1638}.d{fill:#231f20}
    </style>
  </defs>
  <path class="a" d="M67.701 21.484l2.789 12.54 18.252-9.24z"/>
  <path class="b" d="M72.892 2.747l-5.188 18.739 21.04 3.3z"/>
  <path class="a" d="M50.597 0l21.762 2.6-5.144 18.629z"/>
  <path class="c" d="M50.423 3.665h2.423l6.8 8.694z"/>
  <path class="a" d="M89.326 24.66l-6.327-8.756L93.23 14.07z"/>
  <path class="b" d="M88.263 27.229l.653-1.951-15.969 8.1z"/>
  <path class="c" d="M67.255 21.979l3.331 14.98L60.697 45z"/>
  <path class="b" d="M92.232 18.525l5.807-.1-4.2-4.273zM0 15.907c.283.025.566.074.87.074s.543-.05.87-.074v9.313c.914-1.56 2.066-2.591 3.762-2.591 3.069 0 4.4 3.044 4.4 5.837 0 3.348-1.785 6.545-4.917 6.545a3.451 3.451 0 01-3.088-1.788c-.522.453-.978 1.008-1.48 1.511H0zm1.7 13.692c0 2.719 1.153 4.6 3.046 4.6 2.459 0 3.242-3.3 3.242-5.639 0-2.719-.893-4.857-3.025-4.882-2.476-.025-3.263 2.919-3.263 5.915"/>
  <path class="d" d="M17.904 21.932l-1.85 2.372c1.74 2.542 3.538 5.029 5.287 7.606l1.769 2.763v.136c-.435-.027-.828-.081-1.2-.081-.412 0-.828.055-1.219.081a29.3 29.3 0 00-1.5-2.513l-4.744-7.047c-.108-.111-.37-.193-.37-.083v9.643c-.354-.027-.653-.081-.957-.081s-.653.055-.957.081v-18.9c.3.028.63.083.957.083s.608-.055.957-.083v8.54c.023.164.327.055.545-.165a15.96 15.96 0 001.151-1.355l5.352-7.02a8.44 8.44 0 00.87.083c.262 0 .545-.055.849-.083zM32.306 32.698c0 .982-.064 1.486 1.219 1.159v.554a2.96 2.96 0 01-.653.253c-1.13.226-2.066.025-2.241-1.461l-.195.226a4.034 4.034 0 01-3.219 1.592 2.917 2.917 0 01-2.894-3.071c0-2.871 1.979-3.248 4.024-3.624 1.719-.329 2.3-.479 2.3-1.687 0-1.863-.914-2.945-2.545-2.945a2.706 2.706 0 00-2.59 1.737h-.239v-1.415a5.646 5.646 0 013.5-1.383c2.284 0 3.523 1.383 3.523 4.227zm-1.741-4.146l-.761.177c-1.479.329-3.7.58-3.7 2.869 0 1.592.8 2.367 2.133 2.367a2.716 2.716 0 001.74-.957c.152-.177.585-.6.585-.78zM36.179 32.369a3.182 3.182 0 002.5 1.863 2.248 2.248 0 002.133-2.291c0-3.4-5.129-1.183-5.129-5.589a3.434 3.434 0 013.546-3.725 4.638 4.638 0 012.457.654 12.893 12.893 0 00-.52 1.786h-.2a2.31 2.31 0 00-1.85-1.661 1.921 1.921 0 00-1.979 2.091c0 3.221 5.13 1.509 5.13 5.536a3.856 3.856 0 01-4 3.978 5.027 5.027 0 01-2.719-.8 13.509 13.509 0 00.456-1.836zM45.207 15.907c.283.025.566.074.87.074s.545-.05.87-.074v9.161a3.875 3.875 0 013.5-2.439c2.524 0 3.5 1.735 3.5 4.907v7.273c-.327-.023-.587-.074-.87-.074s-.589.051-.872.074v-6.695c0-2.793-.564-4.176-2.414-4.176-1.958 0-2.85 1.415-2.85 4.026v6.845c-.325-.023-.587-.074-.87-.074s-.587.051-.87.074z"/>
</svg>
